<?xml version="1.0" encoding="UTF-8"?>
<!-- Voxel Boroughs original asset, SPDX-License-Identifier: CC-BY-4.0 -->
<svg xmlns="http://www.w3.org/2000/svg" viewBox="0 0 512 512">
  <defs>
    <linearGradient id="bg" x1="0" y1="0" x2="1" y2="1">
      <stop offset="0" stop-color="#20343d"/>
      <stop offset="1" stop-color="#102027"/>
    </linearGradient>
  </defs>
  <rect x="16" y="16" width="480" height="480" rx="92" fill="url(#bg)"/>
  <path d="M256 92 430 192 256 292 82 192Z" fill="#82bd73"/>
  <path d="M82 192 256 292v128L82 320Z" fill="#4f8054"/>
  <path d="m430 192-174 100v128l174-100Z" fill="#365f48"/>
  <path d="m256 136 76 44-76 44-76-44Z" fill="#e8d9aa"/>
  <path d="m180 180 76 44v112l-76-44Z" fill="#b78f68"/>
  <path d="m332 180-76 44v112l76-44Z" fill="#8d6a56"/>
  <path d="m344 238 46 27-46 27-46-27Z" fill="#85bce0"/>
  <path d="m298 265 46 27v74l-46-27Z" fill="#5e8db1"/>
  <path d="m390 265-46 27v74l46-27Z" fill="#416f91"/>
  <path d="M110 232h292" stroke="#f1df8e" stroke-width="12" opacity=".9"/>
</svg>

